<svg xmlns="http://www.w3.org/2000/svg" version="1.1" xmlns:xlink="http://www.w3.org/1999/xlink" width="290.22" height="513.34"><svg xmlns="http://www.w3.org/2000/svg" version="1.1" xmlns:xlink="http://www.w3.org/1999/xlink" width="290.22" height="513.34"><svg id="Layer_2" xmlns="http://www.w3.org/2000/svg" viewBox="0 0 290.22 513.34"><g id="Layer_1-2"><path d="M289.24,330.93c-.07.3-.13.59-.2.88-.19.79-.41,1.56-.64,2.33-.17.54-.34,1.07-.53,1.61-.21.6-.42,1.19-.66,1.78-.29.73-.62,1.45-.95,2.16-.2.43-.39.86-.61,1.29-.46.89-.97,1.77-1.49,2.63-.17.27-.31.55-.48.81-.05.08-.09.16-.14.23-.23.36-.51.68-.75,1.03-.5.71-.96,1.43-1.5,2.12-.11.14-.24.26-.35.4-.38.47-.79.91-1.19,1.36-.6.69-1.21,1.37-1.85,2.01-.45.44-.91.86-1.37,1.28-.64.58-1.29,1.15-1.96,1.69-.48.39-.96.75-1.44,1.11-.7.52-1.41,1.01-2.14,1.47-.52.33-1.04.66-1.57.97-.73.42-1.48.82-2.23,1.2-.54.26-1.07.54-1.61.78-.8.36-1.61.68-2.42.98-.53.2-1.04.42-1.58.59-.91.31-1.83.55-2.76.79-.45.12-.89.26-1.35.36-.95.22-1.92.35-2.88.5-.44.07-.87.18-1.32.23h-.05c-1.39.17-2.79.26-4.2.28-.47.01-.95-.03-1.42-.03-.95-.02-1.9-.04-2.84-.12-.57-.05-1.12-.13-1.68-.2-.86-.11-1.72-.22-2.58-.39-.58-.11-1.17-.25-1.76-.38-.89-.2-1.79-.44-2.66-.71-.52-.16-1.02-.33-1.54-.51-.79-.27-1.58-.58-2.37-.9-.57-.24-1.14-.49-1.71-.76-.78-.36-1.54-.77-2.3-1.19-.55-.3-1.1-.59-1.63-.92-.77-.47-1.52-.98-2.27-1.51-.5-.35-1-.68-1.48-1.05-.14-.1-.29-.19-.43-.3-.69-.54-1.31-1.13-1.96-1.71-.32-.29-.66-.53-.98-.83-.06-.05-.12-.12-.18-.18-.22-.22-.43-.45-.65-.67-.72-.72-1.42-1.46-2.08-2.22-.31-.36-.6-.74-.9-1.11-.49-.62-.97-1.24-1.43-1.87-.37-.53-.73-1.07-1.08-1.62-.3-.46-.59-.93-.87-1.4-.42-.71-.82-1.43-1.2-2.17-.13-.25-.25-.51-.38-.77-3.54-7.27-4.91-15.39-3.97-23.37.02-.19.04-.37.07-.56.12-.93.27-1.86.45-2.78.09-.42.19-.84.28-1.26.17-.73.34-1.47.56-2.2.2-.69.43-1.37.67-2.06.17-.48.32-.97.5-1.44.91-2.35,2.04-4.65,3.4-6.84,0,0,.01-.02.02-.03,3.45-5.94,8.95-9.81,12.24-15.76,0,0,0-.01.01-.02,1.43-2.38,2.64-4.87,3.66-7.44,1.01-2.55,1.82-5.19,2.42-7.87,8.75-33.9-10.98-68.84-44.83-78.7-18.01-5.24-36.45-2.36-51.4,6.52-.06.02-.11.06-.16.09-2.75,1.56-5.35,3.39-7.78,5.45-6.07,4.93-9.15,11.7-15.28,17.98-.09.09-.18.17-.26.26-13.77,13.93-36.08,16.3-52.5,5.62-.67-.43-1.27-.93-1.91-1.39-.59-.43-1.19-.83-1.76-1.29-.39-.32-.74-.66-1.12-.98-.71-.61-1.43-1.19-2.11-1.86-13.75-13.45-16.45-35.24-6.42-51.65,1.69-2.76,3.62-5.24,5.75-7.44,10.48-10.83,15.02-26.09,13.23-41.05l-.7-5.89c-1.79-15-9.83-28.79-22.61-36.85,0-.01-.02-.01-.03-.02-1.22-.77-2.41-1.61-3.56-2.51-.04-.03-.06-.06-.1-.09-.31-.25-.61-.54-.92-.8-.84-.71-1.68-1.43-2.45-2.19-.1-.09-.19-.16-.28-.25-1.8-1.78-3.39-3.71-4.8-5.75-.22-.32-.4-.65-.61-.97-.47-.72-.94-1.44-1.36-2.19-.35-.62-.66-1.25-.98-1.88-.21-.44-.44-.87-.64-1.31-.38-.82-.71-1.65-1.04-2.49-.08-.23-.17-.47-.26-.7-.36-1-.69-2-.97-3.02,0-.02,0-.04-.02-.07-1.84-6.61-2.05-13.6-.55-20.36.06-.3.12-.59.19-.88.19-.79.41-1.56.65-2.34.16-.53.33-1.06.52-1.59.21-.6.43-1.2.67-1.8.29-.72.61-1.43.94-2.15.21-.43.4-.86.62-1.29.45-.89.96-1.76,1.48-2.62.17-.27.32-.56.49-.83.05-.07.08-.15.13-.22.24-.36.51-.67.75-1.03.5-.71.96-1.43,1.51-2.12.11-.14.23-.26.35-.4.38-.47.78-.91,1.18-1.36.61-.69,1.22-1.37,1.86-2.01.44-.44.9-.85,1.36-1.27,0-.01.02-.02.03-.03.63-.58,1.27-1.14,1.93-1.67.52-.43,1.05-.82,1.59-1.21.65-.48,1.31-.94,1.99-1.37.52-.33,1.04-.66,1.57-.97.73-.42,1.48-.82,2.24-1.2.53-.27,1.06-.54,1.6-.78.8-.36,1.61-.68,2.43-.99.52-.19,1.04-.41,1.57-.58.91-.31,1.83-.55,2.76-.79.45-.12.9-.26,1.35-.36,1.39-.31,2.79-.56,4.2-.73.02,0,.04,0,.05-.01C59.93.11,61.33.02,62.73,0c.48-.01.95.03,1.42.03.95.02,1.9.04,2.85.12.56.05,1.11.13,1.67.2.86.11,1.72.22,2.58.39.59.11,1.17.25,1.76.38.82.2,1.63.4,2.45.64.58.18,1.17.38,1.75.58.8.27,1.59.58,2.37.9.58.24,1.15.49,1.71.76.78.36,1.55.77,2.31,1.19.54.3,1.09.59,1.62.92.78.47,1.53.98,2.28,1.51.49.35.99.68,1.47,1.05.14.1.29.19.43.3.69.54,1.32,1.13,1.96,1.71.33.29.67.53.98.83.07.05.12.12.18.18.23.22.43.45.65.67.72.72,1.42,1.46,2.08,2.22.31.36.6.74.9,1.11.49.62.98,1.24,1.43,1.87.38.53.73,1.07,1.08,1.62.3.46.59.93.87,1.4.42.71.82,1.43,1.2,2.17.13.25.26.51.38.77,3.55,7.27,4.91,15.39,3.97,23.37-.02.19-.04.37-.06.56-.13.93-.27,1.86-.46,2.78-.08.42-.18.84-.28,1.26-.17.73-.34,1.47-.55,2.2-.2.69-.44,1.37-.68,2.06-.17.48-.31.97-.5,1.44-.91,2.35-2.03,4.65-3.4,6.84-.04.07-.09.13-.14.2-.23.36-.51.71-.75,1.07-.06.09-.12.18-.18.27-.5.74-1.04,1.44-1.64,2.09-.04.05-.07.09-.07.09-4.09,5.58-9.03,10.15-12.48,17.09-1.7,3.43-3.13,7.05-4.24,10.85-1.8,6.19-2.65,12.43-2.62,18.56,0,.34.01.67.01,1.01.32,27.69,18.57,53.08,46.54,61.23,5.84,1.7,11.72,2.54,17.52,2.58.25.01.5.01.75.01,23.16.14,42.73-11.73,55.42-31.23,1.73-2.65,7-7.73,9.05-9.15.31-.21,2.41-1.55,3.16-1.97.59-.33,1.19-.63,1.79-.94.47-.23.93-.47,1.41-.69.79-.36,1.58-.69,2.38-1,.57-.21,1.13-.42,1.7-.63.71-.27,1.42-.5,2.16-.65h.01c6.59-1.85,13.57-2.06,20.32-.58.32.06.63.13.95.2.77.19,1.54.41,2.3.64.55.16,1.09.35,1.64.53.59.21,1.18.42,1.76.66.74.29,1.47.62,2.2.97.42.19.84.38,1.26.59.91.47,1.8.99,2.69,1.53.25.15.51.28.76.44.07.05.14.08.21.13.35.23.66.5,1.01.74.72.5,1.46.98,2.17,1.53.03.03.06.06.09.08.13.11.26.23.4.33.38.32.74.66,1.11.98.36.31.71.62,1.06.94.19.17.41.34.59.52.15.14.32.25.46.4,13.75,13.45,16.45,35.24,6.42,51.65-1.69,2.76-3.62,5.24-5.75,7.44-10.48,10.83-15.01,26.09-13.23,41.05l.7,5.89c1.79,15,9.84,28.79,22.61,36.85,0,.01.02.01.04.02,1.21.77,2.4,1.61,3.56,2.51l.09.09c.32.25.61.54.92.8.85.71,1.68,1.43,2.46,2.19.09.09.19.16.28.25,1.79,1.78,3.39,3.72,4.79,5.75.22.32.41.64.61.96.47.73.94,1.45,1.36,2.2.35.62.66,1.25.98,1.88.22.44.44.87.64,1.32.38.81.72,1.64,1.04,2.47.09.24.18.48.26.71.37,1,.69,2,.97,3.02,0,.02.02.05.02.07,1.84,6.61,2.05,13.6.56,20.36Z" style="fill:#00abf1;"></path><circle cx="155.82" cy="93.72" r="47.71" transform="translate(-25.87 86.53) rotate(-28.76)" style="fill:#00abf1;"></circle><path d="M109.53,506.42c.26.17.5.33.76.49.69.43,1.38.83,2.08,1.23.5.27.99.53,1.5.79.57.28,1.13.56,1.71.82.72.32,1.45.61,2.19.89.44.17.88.35,1.34.5.95.32,1.93.59,2.9.85.31.08.61.18.91.25.09.02.18.05.26.07.42.1.84.13,1.26.22.85.16,1.68.36,2.55.48.18.02.35.02.53.04.6.07,1.2.1,1.8.15.91.08,1.82.14,2.73.15.63,0,1.25-.02,1.87-.04.86-.03,1.73-.07,2.58-.15.56-.05,1.11-.12,1.65-.19.91-.12,1.82-.27,2.72-.46.6-.13,1.21-.25,1.8-.4.82-.21,1.63-.44,2.44-.69.57-.19,1.14-.36,1.7-.56.82-.3,1.63-.63,2.42-.98.52-.23,1.04-.42,1.54-.68.87-.41,1.7-.88,2.53-1.35.41-.23.82-.43,1.22-.68.84-.5,1.62-1.09,2.42-1.65.36-.26.75-.48,1.11-.75l.04-.03c1.12-.85,2.18-1.76,3.21-2.72.34-.32.66-.68,1-1.01.67-.68,1.34-1.35,1.95-2.06.37-.43.71-.87,1.07-1.31.54-.68,1.08-1.36,1.58-2.08.34-.48.67-.99,1-1.5.5-.76.98-1.56,1.41-2.36.26-.48.5-.95.75-1.44.38-.74.73-1.52,1.07-2.3.24-.57.48-1.15.7-1.74.31-.8.57-1.63.82-2.46.19-.6.38-1.19.53-1.8.23-.87.41-1.76.58-2.66.12-.6.24-1.18.33-1.78.03-.17.08-.34.1-.51.12-.87.15-1.72.22-2.59.03-.43.1-.84.13-1.28,0-.08,0-.17,0-.25,0-.31,0-.62,0-.93.01-1.02,0-2.04-.05-3.04-.03-.47-.08-.95-.13-1.42-.08-.79-.17-1.57-.28-2.34-.1-.64-.22-1.28-.35-1.91-.11-.54-.22-1.08-.35-1.61-.19-.8-.41-1.6-.65-2.39-.08-.27-.18-.54-.26-.82-2.52-7.68-7.19-14.46-13.43-19.54-.15-.12-.29-.24-.44-.35-.73-.58-1.49-1.15-2.26-1.68-.36-.24-.72-.47-1.08-.71-.63-.41-1.27-.82-1.93-1.19-.62-.36-1.26-.68-1.92-1.01-.46-.23-.91-.47-1.36-.69-2.29-1.05-4.7-1.92-7.2-2.54,0,0-.03,0-.04,0-6.61-1.86-13.25-.81-19.76-2.79,0,0,0,0-.02,0-2.68-.71-5.29-1.66-7.81-2.79-2.5-1.13-4.92-2.46-7.22-3.96-29.89-18.23-40.06-57.05-22.64-87.7,9.28-16.3,24.51-27.08,41.43-31.12.06-.03.12-.03.18-.05,3.06-.8,6.2-1.29,9.38-1.51,7.79-.69,14.71,2.03,23.49,2.26.13,0,.25,0,.37,0,2.98.07,5.91-.2,8.75-.77,12.36-2.02,23.73-9.4,30.4-21.14,11.72-20.61,4.51-46.81-16.09-58.53s-46.8-4.51-58.52,16.1c-4.42,7.76-4.95,20.94-4.66,30.37.29,9.36-3.21,18.5-9.86,25.09-.04.04-.08.08-.12.12-.17.18-.35.36-.53.53-16.52,16.23-38.75,20.98-61.52,16.18-2.7-.57-10.41-.67-12.87-.26-.37.06-.73.15-1.09.22-.86.16-1.72.34-2.55.56-.65.17-1.29.38-1.94.57-.5.16-.99.31-1.49.49-.82.29-1.61.61-2.4.94-.56.25-1.1.49-1.66.73-.7.3-1.37.63-2,1.04h0c-6.02,3.27-11.17,7.98-14.99,13.74-.19.27-.36.53-.54.81-.42.67-.82,1.37-1.2,2.06-.28.5-.54,1.01-.81,1.52-.28.56-.55,1.12-.8,1.7-.33.72-.62,1.47-.9,2.23-.17.43-.34.86-.49,1.3-.33.97-.6,1.96-.86,2.97-.08.28-.17.56-.24.85-.02.08-.04.16-.06.24-.09.41-.13.82-.21,1.23-.17.86-.37,1.72-.49,2.61,0,.04,0,.08,0,.12-.02.17-.03.35-.06.52-.05.49-.07.99-.11,1.48-.04.47-.08.94-.11,1.41-.02.25-.06.53-.06.78,0,.2-.06.4-.05.61-.5,19.23,12.74,36.75,31.36,41.54,3.13.8,6.25,1.24,9.31,1.33,15.06.47,28.94,8.27,38.08,20.25l3.6,4.71c9.16,12.01,12.99,27.51,9.44,42.19,0,.01,0,.02-.01.04-.33,1.4-.6,2.83-.81,4.28v.13c-.06.4-.06.81-.1,1.21-.12,1.1-.21,2.2-.24,3.28,0,.13-.02.25-.03.37-.04,2.52.16,5.03.57,7.46.06.38.15.74.23,1.11.17.85.34,1.7.56,2.53.18.69.4,1.36.61,2.03.15.47.29.93.46,1.39.29.85.63,1.68.97,2.5.1.23.21.47.31.69.43.98.9,1.92,1.41,2.84,0,.02.02.05.03.06,3.28,6.02,8,11.19,13.78,15Z" style="fill:#00abf1;"></path></g></svg></svg><style>@media (prefers-color-scheme: light) { :root { filter: none; } }
@media (prefers-color-scheme: dark) { :root { filter: none; } }
</style></svg>